<svg viewBox="0 0 48 48" fill="currentColor" xmlns="http://www.w3.org/2000/svg">
<path d="M24 0C27.375 0 30.375 1.96875 31.875 4.875C34.9688 3.84375 38.5312 4.59375 40.9688 7.03125C43.4062 9.46875 44.1562 13.0312 43.125 16.125C46.0312 17.625 48 20.625 48 24C48 27.4688 46.0312 30.4688 43.125 31.9688C44.1562 35.0625 43.4062 38.5312 40.9688 40.9688C38.5312 43.4062 34.9688 44.1562 31.875 43.2188C30.375 46.125 27.375 48 24 48C20.5312 48 17.5312 46.125 16.0312 43.2188C12.9375 44.1562 9.46875 43.4062 7.03125 40.9688C4.59375 38.5312 3.84375 35.0625 4.78125 31.9688C1.875 30.4688 0 27.4688 0 24C0 20.625 1.875 17.625 4.78125 16.125C3.84375 13.0312 4.59375 9.46875 7.03125 7.03125C9.46875 4.59375 12.9375 3.84375 16.0312 4.875C17.5312 1.96875 20.5312 0 24 0ZM34.5938 19.5938C35.4375 18.75 35.4375 17.3438 34.5938 16.5C33.6562 15.5625 32.25 15.5625 31.4062 16.5L21 26.9062L16.5938 22.5C15.6562 21.5625 14.25 21.5625 13.4062 22.5C12.4688 23.3438 12.4688 24.75 13.4062 25.5938L19.4062 31.5938C20.25 32.5312 21.6562 32.5312 22.5938 31.5938L34.5938 19.5938Z" />
</svg>
